<svg xmlns="http://www.w3.org/2000/svg" width="30" height="30" viewBox="0 0 30 30"><g transform="translate(-5 -1082.094) scale(3.77953)"><path fill="#f8ab3b" d="m 106.25,394.39648 a 0.59364797,0.59364797 0 0 0 -0.28516,0.0723 l -9.351559,5.09961 a 1.4788321,1.4788321 0 0 0 -0.771484,1.29883 l 0,9.12304 a 0.57755426,0.57755426 0 0 0 0.294922,0.50196 l 0.921875,0.64648 0.01758,0.0137 a 0.57755426,0.57755426 0 0 0 0.05078,0.0352 0.57755426,0.57755426 0 0 0 0.582031,0.002 l 9.134765,-5.27148 a 1.9952556,1.9952556 0 0 0 0.99805,-1.72656 l 0,-8.50196 a 0.59364797,0.59364797 0 0 0 -0.30078,-0.51757 0.59364797,0.59364797 0 0 0 -0.008,-0.004 L 106.58398,394.5 a 0.59364797,0.59364797 0 0 1 -0.002,-0.002 0.59364797,0.59364797 0 0 0 -0.33203,-0.10157 z" transform="translate(-21.39 183.84) scale(.26458)"/><path fill="#fecb5b" d="m 4.4372455,289.74395 2.474222,-1.34958 a 0.15706936,0.15706936 0 0 1 0.232282,0.13789 l 0,2.24933 a 0.52791139,0.52791139 0 0 1 -0.264101,0.45727 l -2.41714,1.39451 a 0.15281123,0.15281123 0 0 1 -0.229175,-0.13236 l 0,-2.41357 a 0.39127433,0.39127433 0 0 1 0.203912,-0.34349 z"/><path fill="#f8b545" d="m 107.26953,395.0957 c -0.10085,-0.004 -0.20579,0.0183 -0.30469,0.0723 l -9.351559,5.10156 c -0.475094,0.25913 -0.771473,0.75572 -0.771484,1.29688 l 0,0.96679 0,0.65821 0,0.34961 5.687503,0.5664 1.16015,0.0899 4.15235,-5.97657 0,-0.72656 0,-0.79687 0,-1.00782 c -1e-5,-0.33786 -0.26973,-0.5831 -0.57227,-0.59375 z" transform="translate(-21.39 183.84) scale(.26458)"/></g></svg>