<svg xmlns="http://www.w3.org/2000/svg" width="130" height="130" viewBox="0 0 130 130"><path fill="#24A9E6" d="M105.133 10.223l-12.82-7.344a9.504 9.504 0 0 0-1.801-1.032l-.189-.108-.008.016C86.866.353 82.411.86 77.551 3.665L38.064 26.46c-10.857 6.269-19.74 21.655-19.74 34.193v45.591c0 6.114 2.123 10.45 5.547 12.578l-.033.059 14.248 8.072 8.012-13.949 31.453-18.157c10.855-6.269 19.74-21.655 19.74-34.193V23.876l7.842-13.653z"/><path fill="#0794D3" d="M105.133 10.223L91.41 7.005c-.561-.409-3.363-.398-4.002-.677l-1.017-.408-1.832-.34C81.11 4.178 82.411.859 77.551 3.664L38.064 26.46c-10.857 6.269-19.74 21.655-19.74 34.193v45.591c0 6.114 2.123 10.45 5.547 12.578l-.033.059 14.248 8.072 8.012-13.949 31.453-18.157c10.855-6.269 19.74-21.655 19.74-34.193V23.876l7.842-13.653z"/><path fill="#0982C6" d="M19.076 54.085c-.479 2.231-.752 4.442-.752 6.568v45.591c0 6.114 2.123 10.45 5.547 12.578l-.033.059 14.248 8.072 8.012-13.949 31.453-18.157c1.844-1.065 3.627-2.411 5.322-3.945L19.076 54.085z"/><path fill="#3DBDEA" d="M51.635 34.329c-10.857 6.269-19.742 21.655-19.742 34.193v45.591c0 12.538 8.885 17.666 19.742 11.398l39.484-22.796c10.857-6.269 19.742-21.655 19.742-34.193v-45.59c0-12.538-8.885-17.666-19.742-11.398L51.635 34.329z"/><path fill="#24A9E6" d="M110.861 22.932c0-12.538-8.885-17.666-19.742-11.398L51.635 34.329c-10.857 6.269-19.742 21.655-19.742 34.193v45.591c0 12.538 8.885 17.666 19.742 11.398"/><path fill="#5CDCFF" d="M42.865 129h-.002c-7.158 0-11.783-5.844-11.783-14.887V68.522c0-12.829 9.037-28.485 20.146-34.897l39.486-22.796c3.201-1.848 6.289-2.784 9.178-2.784 7.158 0 11.785 5.844 11.785 14.887v45.591c0 12.829-9.039 28.485-20.148 34.897l-39.486 22.796C48.84 128.063 45.754 129 42.865 129zM99.891 9.674c-2.6 0-5.414.863-8.363 2.564L52.041 35.033c-10.66 6.156-19.334 21.179-19.334 33.489v45.591c0 8.178 3.891 13.259 10.156 13.259h.002c2.6 0 5.412-.864 8.361-2.565l39.486-22.795c10.66-6.155 19.334-21.179 19.334-33.489V22.932c.001-8.178-3.89-13.258-10.155-13.258z"/><path fill="#FCFCFC" d="M54.654 88.825c1.438 4.408 5.565 5.835 10.46 3.115-4.894 2.72-9.021 1.293-10.46-3.115m-3.958-11.03l.001.168c.019 6.373 3.885 9.468 9.002 7.722-5.117 1.746-8.983-1.349-9.002-7.722l-.001-.168m46.703-30.616c.051 17.395-11.127 43.923-31.667 55.782-6.31 3.643-12.183 4.853-17.14 3.984 4.957.868 10.83-.342 17.14-3.984 20.54-11.859 31.718-38.388 31.667-55.782m5.517-11.716"/><path fill="#FCFCFC" d="M102.702 35.695l-.155.168c.053-.054.104-.112.155-.168m-16.555 3.264C79.983 42.52 75 51.299 75.021 58.566c.003 1.033.105 1.973.298 2.834-9.286 4.809-17.528 4.319-23.061-.465-.953 2.504-1.503 5.09-1.495 7.493.012 4.565 1.994 7.459 5 8.089-1.826.984-3.557 1.387-5.066 1.277l.001.168c.019 6.373 3.885 9.468 9.002 7.722a17.262 17.262 0 0 1-2.944 2.164 12.21 12.21 0 0 1-2.101.977c1.438 4.408 5.565 5.835 10.46 3.115-3.811 5.739-8.63 10.622-13.857 13.64-.898.52-1.789.98-2.664 1.365 4.957.868 10.83-.342 17.14-3.984 20.54-11.859 31.718-38.388 31.667-55.782a58.084 58.084 0 0 0-.027-1.691 55.457 55.457 0 0 0 5.544-10.024 56.197 56.197 0 0 1-1.888 3.953l-.631-1.391a38.233 38.233 0 0 1-3.891 3.213c2.309-2.961 4.074-6.564 4.896-10.123-2.157 2.762-4.536 5.229-7.092 7.292-2.034-1.385-4.944-1.306-8.165.551"/><g fill="#D2F1FF"><path d="M101.977 37.525a54.421 54.421 0 010 0zM101.036 39.401zM97.386 46.272c-.006-.261-.006-.529-.014-.785a55.387 55.387 0 003.656-6.071l-.631-1.391a38.233 38.233 0 01-3.891 3.213c2.309-2.961 4.074-6.564 4.896-10.123-2.157 2.762-4.536 5.229-7.092 7.292-2.032-1.384-4.942-1.306-8.163.552C79.983 42.52 75 51.299 75.021 58.566c.003 1.033.105 1.973.298 2.834-9.286 4.809-17.528 4.319-23.061-.465-.953 2.504-1.503 5.09-1.495 7.493.012 4.565 1.994 7.459 5 8.089-1.826.984-3.557 1.387-5.066 1.277l.001.168c.019 6.373 3.885 9.468 9.002 7.722a17.262 17.262 0 01-2.944 2.164 12.21 12.21 0 01-2.101.977c1.438 4.408 5.565 5.835 10.46 3.115-3.811 5.739-8.63 10.622-13.857 13.64-.898.52-1.789.98-2.664 1.365 4.542.795 9.855-.16 15.567-3.128l33.225-57.545zM101.036 39.401l-.008.015z"/></g><path fill="#FCFCFC" d="M102.916 35.463c-.07.078-.142.155-.214.232l-.155.168a45.945 45.945 0 0 1-2.153 2.15l.004.012.631 1.391c.675-1.3 1.32-2.617 1.887-3.953"/><path fill="#D2F1FF" d="M63.555 52.635s.812 4.428 3.247 5.43c1.56.637 2.842.213 3.631-.242.553-.318.865-.652.865-.652s1.672-6.933-7.743-4.536M72.965 48.551s-.924 2.303-.745 3.714c.196 1.544.996 1.389.996 1.389s1.944-2.438-.251-5.103M61.373 60.314c1.028 2.288 2.288 2.04 3.013 1.622.36-.208.589-.46.589-.46s.233-1.064-.828-1.58c-.986-.464-2.774.418-2.774.418M70.251 59.307c.912 2.605 2.239 2.299 2.939 1.896.29-.169.473-.354.473-.354s.287-1.066-.714-1.706c-.917-.577-2.698.164-2.698.164M68.18 60.188c-.464.268-.843.924-.841 1.457 0 .533.383.752.846.482.473-.271.844-.925.843-1.458-.003-.533-.377-.755-.848-.481M62.772 56.494a.702.702 0 00-.318.551c0 .201.146.276.32.175a.69.69 0 00.318-.544c.001-.201-.145-.283-.32-.182"/><path fill="#FCFCFC" d="M69.472 47.879a.349.349 0 0 0-.159.276c0 .104.069.144.16.091a.357.357 0 0 0 .159-.275c0-.098-.077-.141-.16-.092"/><path fill="#D2F1FF" d="M70.11 49.822c-.32.186-.578.641-.577 1.007.001.369.261.516.58.331.32-.185.585-.635.585-1.003-.002-.366-.269-.518-.588-.335"/></svg>